<svg width="32" height="33" viewBox="0 0 32 33" fill="none" xmlns="http://www.w3.org/2000/svg">
<g filter="url(#filter0_d_5:84)">
<path d="M10.4651 22.2851C10.2465 22.285 10.0339 22.2133 9.85996 22.081C9.68598 21.9486 9.56016 21.7629 9.50174 21.5523C9.44333 21.3417 9.45554 21.1177 9.5365 20.9146C9.61747 20.7116 9.76273 20.5407 9.95006 20.4281C13.4931 18.3001 13.4931 13.7301 13.4931 11.0001C13.4931 10.2044 13.8091 9.44134 14.3717 8.87873C14.9343 8.31612 15.6974 8.00005 16.4931 8.00005C17.2887 8.00005 18.0518 8.31612 18.6144 8.87873C19.177 9.44134 19.4931 10.2044 19.4931 11.0001C19.4931 11.2653 19.3877 11.5196 19.2002 11.7072C19.0126 11.8947 18.7583 12.0001 18.4931 12.0001C18.2278 12.0001 17.9735 11.8947 17.786 11.7072C17.5984 11.5196 17.4931 11.2653 17.4931 11.0001C17.4931 10.7348 17.3877 10.4805 17.2002 10.2929C17.0126 10.1054 16.7583 10.0001 16.4931 10.0001C16.2278 10.0001 15.9735 10.1054 15.786 10.2929C15.5984 10.4805 15.4931 10.7348 15.4931 11.0001C15.4931 13.9471 15.4931 19.4341 10.9791 22.1431C10.8237 22.236 10.6461 22.2851 10.4651 22.2851ZM15.4281 23.7061C17.7101 21.4061 19.0431 18.1721 19.3891 14.0851C19.4007 13.9539 19.3864 13.8218 19.3469 13.6963C19.3074 13.5707 19.2435 13.4542 19.1588 13.3534C19.0742 13.2526 18.9705 13.1695 18.8537 13.1089C18.7368 13.0482 18.6092 13.0112 18.4781 13.0001C18.3468 12.9866 18.2142 12.9997 18.0882 13.0385C17.9621 13.0774 17.8452 13.1412 17.7443 13.2262C17.6434 13.3113 17.5607 13.4157 17.5011 13.5333C17.4414 13.651 17.406 13.7794 17.3971 13.9111C17.0861 17.5681 15.9781 20.3111 14.0091 22.2921C13.8221 22.4802 13.7175 22.735 13.7184 23.0002C13.7192 23.2655 13.8254 23.5196 14.0136 23.7066C14.2017 23.8935 14.4565 23.9981 14.7217 23.9973C14.987 23.9964 15.2411 23.8902 15.4281 23.7021V23.7061ZM20.6281 23.5201C21.2346 22.5122 21.7398 21.4466 22.1361 20.3391C22.2189 20.0913 22.2015 19.821 22.0877 19.586C21.9738 19.3509 21.7725 19.1697 21.5268 19.0811C21.2811 18.9926 21.0104 19.0037 20.7728 19.112C20.5351 19.2204 20.3493 19.4175 20.2551 19.6611C19.903 20.6431 19.4548 21.588 18.9171 22.4821C18.8489 22.5944 18.8035 22.7191 18.7836 22.8489C18.7636 22.9788 18.7694 23.1114 18.8006 23.239C18.8319 23.3666 18.888 23.4869 18.9657 23.5928C19.0434 23.6988 19.1412 23.7884 19.2536 23.8566C19.4804 23.9942 19.7527 24.0361 20.0105 23.973C20.1381 23.9417 20.2584 23.8856 20.3643 23.8079C20.4703 23.7302 20.5599 23.6324 20.6281 23.5201ZM22.9931 17.1911C23.3635 15.1489 23.531 13.0752 23.4931 11.0001C23.4921 9.58335 23.0613 8.20028 22.2576 7.03361C21.4539 5.86694 20.3151 4.9716 18.9918 4.46589C17.6684 3.96019 16.2227 3.86793 14.8458 4.20131C13.4689 4.53469 12.2255 5.27801 11.2801 6.33305C11.188 6.43005 11.1163 6.54454 11.0692 6.66974C11.0222 6.79494 11.0007 6.92831 11.0061 7.06194C11.0115 7.19558 11.0437 7.32678 11.1007 7.44777C11.1577 7.56876 11.2384 7.67708 11.338 7.76633C11.4377 7.85557 11.5542 7.92393 11.6807 7.96735C11.8072 8.01077 11.9411 8.02838 12.0745 8.01912C12.208 8.00986 12.3382 7.97394 12.4575 7.91346C12.5768 7.85299 12.6827 7.7692 12.7691 7.66705C13.4443 6.91333 14.3324 6.38226 15.316 6.14402C16.2995 5.90578 17.3322 5.97159 18.2775 6.33276C19.2228 6.69392 20.0363 7.33344 20.6105 8.16678C21.1846 9.00013 21.4924 9.98807 21.4931 11.0001C21.5299 12.9469 21.3752 14.8926 21.0311 16.8091C20.9806 17.0692 21.0354 17.3388 21.1835 17.5585C21.3317 17.7783 21.561 17.9303 21.8211 17.9811C21.8846 17.9938 21.9493 18.0001 22.0141 18.0001C22.2457 17.9995 22.4699 17.9185 22.6485 17.7709C22.827 17.6234 22.9488 17.4184 22.9931 17.1911ZM11.4931 11.0001C11.4928 10.7209 11.5158 10.4423 11.5621 10.1671C11.5919 10.0345 11.5945 9.89734 11.5696 9.76381C11.5446 9.63028 11.4928 9.50322 11.4171 9.3904C11.3415 9.27757 11.2437 9.18133 11.1296 9.10756C11.0156 9.03379 10.8877 8.98403 10.7538 8.96131C10.6198 8.93859 10.4827 8.9434 10.3507 8.97543C10.2187 9.00746 10.0946 9.06606 9.98598 9.14763C9.87737 9.2292 9.78651 9.33205 9.71896 9.44989C9.6514 9.56773 9.60857 9.69811 9.59306 9.83305C9.52704 10.2186 9.49359 10.6089 9.49306 11.0001C9.49306 15.6451 8.14706 18.0001 5.49306 18.0001C5.22784 18.0001 4.97349 18.1054 4.78595 18.2929C4.59841 18.4805 4.49306 18.7348 4.49306 19.0001C4.49306 19.2653 4.59841 19.5196 4.78595 19.7072C4.97349 19.8947 5.22784 20.0001 5.49306 20.0001C9.36206 20.0001 11.4931 16.8001 11.4931 11.0001ZM25.1931 23.4141C26.8387 19.4882 27.6231 15.2549 27.4931 11.0001C27.4977 9.33897 27.1214 7.69896 26.3931 6.20605C26.3356 6.08786 26.2554 5.98215 26.1571 5.89494C26.0588 5.80773 25.9443 5.74074 25.8201 5.6978C25.6959 5.65485 25.5645 5.63678 25.4333 5.64464C25.3021 5.65249 25.1737 5.6861 25.0556 5.74355C24.9374 5.801 24.8317 5.88117 24.7444 5.97948C24.6572 6.07779 24.5903 6.19232 24.5473 6.31651C24.5044 6.44071 24.4863 6.57215 24.4941 6.70333C24.502 6.83451 24.5356 6.96286 24.5931 7.08105C25.1881 8.30162 25.496 9.64217 25.4931 11.0001C25.6189 14.9688 24.8965 18.9188 23.3741 22.5861C23.3199 22.7058 23.2898 22.8351 23.2856 22.9664C23.2814 23.0978 23.3031 23.2287 23.3496 23.3517C23.396 23.4747 23.4662 23.5873 23.5562 23.6831C23.6462 23.7789 23.7542 23.856 23.8741 23.9101C24.0036 23.9696 24.1445 24.0003 24.2871 24.0001C24.4783 23.9992 24.6653 23.9436 24.8259 23.8397C24.9865 23.7359 25.1139 23.5881 25.1931 23.4141ZM7.49306 14.0001V11.0001C7.4957 8.61392 8.44477 6.32627 10.132 4.63901C11.8193 2.95176 14.1069 2.0027 16.4931 2.00005C18.4414 1.99356 20.3382 2.62583 21.8931 3.80005C22.1052 3.95918 22.3719 4.02751 22.6345 3.99C22.897 3.95249 23.1339 3.81222 23.2931 3.60005C23.4522 3.38788 23.5205 3.12118 23.483 2.85863C23.4455 2.59608 23.3052 2.35918 23.0931 2.20005C21.1924 0.765473 18.8743 -0.0072348 16.4931 5.10545e-05C13.5767 0.00349153 10.7808 1.16352 8.71868 3.22568C6.65653 5.28783 5.4965 8.08373 5.49306 11.0001V14.0001C5.49306 14.2653 5.59841 14.5196 5.78595 14.7072C5.97349 14.8947 6.22784 15.0001 6.49306 15.0001C6.75827 15.0001 7.01263 14.8947 7.20016 14.7072C7.3877 14.5196 7.49306 14.2653 7.49306 14.0001Z" fill="#111238"/>
</g>
<defs>
<filter id="filter0_d_5:84" x="0.493057" y="0" width="31.0139" height="32.0017" filterUnits="userSpaceOnUse" color-interpolation-filters="sRGB">
<feFlood flood-opacity="0" result="BackgroundImageFix"/>
<feColorMatrix in="SourceAlpha" type="matrix" values="0 0 0 0 0 0 0 0 0 0 0 0 0 0 0 0 0 0 127 0" result="hardAlpha"/>
<feOffset dy="4"/>
<feGaussianBlur stdDeviation="2"/>
<feComposite in2="hardAlpha" operator="out"/>
<feColorMatrix type="matrix" values="0 0 0 0 0 0 0 0 0 0 0 0 0 0 0 0 0 0 0.25 0"/>
<feBlend mode="normal" in2="BackgroundImageFix" result="effect1_dropShadow_5:84"/>
<feBlend mode="normal" in="SourceGraphic" in2="effect1_dropShadow_5:84" result="shape"/>
</filter>
</defs>
</svg>
