<svg width="0" height="0" class="hidden">
  <symbol xmlns="http://www.w3.org/2000/svg" viewBox="0 0 24 24" id="brush">
    <path d="M19 0H5C3.67441 0.00158786 2.40356 0.528882 1.46622 1.46622C0.528882 2.40356 0.00158786 3.67441 0 5L0 10C0.00238142 11.8558 0.740644 13.6349 2.05288 14.9471C3.36512 16.2594 5.14422 16.9976 7 17H9V21C9 21.7956 9.31607 22.5587 9.87868 23.1213C10.4413 23.6839 11.2044 24 12 24C12.7956 24 13.5587 23.6839 14.1213 23.1213C14.6839 22.5587 15 21.7956 15 21V17H17C18.8558 16.9976 20.6349 16.2594 21.9471 14.9471C23.2594 13.6349 23.9976 11.8558 24 10V5C23.9984 3.67441 23.4711 2.40356 22.5338 1.46622C21.5964 0.528882 20.3256 0.00158786 19 0V0ZM2 5C2 4.20435 2.31607 3.44129 2.87868 2.87868C3.44129 2.31607 4.20435 2 5 2H10V3C10 3.26522 10.1054 3.51957 10.2929 3.70711C10.4804 3.89464 10.7348 4 11 4C11.2652 4 11.5196 3.89464 11.7071 3.70711C11.8946 3.51957 12 3.26522 12 3V2H14V5C14 5.26522 14.1054 5.51957 14.2929 5.70711C14.4804 5.89464 14.7348 6 15 6C15.2652 6 15.5196 5.89464 15.7071 5.70711C15.8946 5.51957 16 5.26522 16 5V2H18V7C18 7.26522 18.1054 7.51957 18.2929 7.70711C18.4804 7.89464 18.7348 8 19 8C19.2652 8 19.5196 7.89464 19.7071 7.70711C19.8946 7.51957 20 7.26522 20 7V2.184C20.5829 2.39008 21.0879 2.77123 21.4459 3.2753C21.8039 3.77937 21.9974 4.38174 22 5V10H2V5ZM17 15H14C13.7348 15 13.4804 15.1054 13.2929 15.2929C13.1054 15.4804 13 15.7348 13 16V21C13 21.2652 12.8946 21.5196 12.7071 21.7071C12.5196 21.8946 12.2652 22 12 22C11.7348 22 11.4804 21.8946 11.2929 21.7071C11.1054 21.5196 11 21.2652 11 21V16C11 15.7348 10.8946 15.4804 10.7071 15.2929C10.5196 15.1054 10.2652 15 10 15H7C6.02823 14.9987 5.0779 14.7143 4.26521 14.1815C3.45252 13.6487 2.81271 12.8906 2.424 12H21.576C21.1873 12.8906 20.5475 13.6487 19.7348 14.1815C18.9221 14.7143 17.9718 14.9987 17 15Z"></path>
  </symbol>
  <symbol xmlns="http://www.w3.org/2000/svg" viewBox="0 0 28 24" id="browser">
    <path d="M21.6364 0H6.36363C4.91753 0.00173221 3.53115 0.576962 2.5086 1.59951C1.48605 2.62206 0.91082 4.00844 0.909088 5.45455L0.909088 18.5455C0.91082 19.9916 1.48605 21.3779 2.5086 22.4005C3.53115 23.423 4.91753 23.9983 6.36363 24H21.6364C23.0825 23.9983 24.4688 23.423 25.4914 22.4005C26.5139 21.3779 27.0892 19.9916 27.0909 18.5455V5.45455C27.0892 4.00844 26.5139 2.62206 25.4914 1.59951C24.4688 0.576962 23.0825 0.00173221 21.6364 0ZM6.36363 2.18182H21.6364C22.5043 2.18182 23.3368 2.52662 23.9505 3.14038C24.5643 3.75413 24.9091 4.58656 24.9091 5.45455V6.54545H3.09091V5.45455C3.09091 4.58656 3.43571 3.75413 4.04947 3.14038C4.66322 2.52662 5.49565 2.18182 6.36363 2.18182ZM21.6364 21.8182H6.36363C5.49565 21.8182 4.66322 21.4734 4.04947 20.8596C3.43571 20.2459 3.09091 19.4134 3.09091 18.5455V8.72727H24.9091V18.5455C24.9091 19.4134 24.5643 20.2459 23.9505 20.8596C23.3368 21.4734 22.5043 21.8182 21.6364 21.8182ZM21.6364 13.0909C21.6364 13.3802 21.5214 13.6577 21.3168 13.8623C21.1123 14.0669 20.8348 14.1818 20.5455 14.1818H7.45454C7.16522 14.1818 6.88774 14.0669 6.68315 13.8623C6.47857 13.6577 6.36363 13.3802 6.36363 13.0909C6.36363 12.8016 6.47857 12.5241 6.68315 12.3195C6.88774 12.1149 7.16522 12 7.45454 12H20.5455C20.8348 12 21.1123 12.1149 21.3168 12.3195C21.5214 12.5241 21.6364 12.8016 21.6364 13.0909ZM17.2727 17.4545C17.2727 17.7439 17.1578 18.0214 16.9532 18.2259C16.7486 18.4305 16.4711 18.5455 16.1818 18.5455H7.45454C7.16522 18.5455 6.88774 18.4305 6.68315 18.2259C6.47857 18.0214 6.36363 17.7439 6.36363 17.4545C6.36363 17.1652 6.47857 16.8877 6.68315 16.6832C6.88774 16.4786 7.16522 16.3636 7.45454 16.3636H16.1818C16.4711 16.3636 16.7486 16.4786 16.9532 16.6832C17.1578 16.8877 17.2727 17.1652 17.2727 17.4545ZM4.18182 4.36364C4.18182 4.14787 4.2458 3.93696 4.36567 3.75756C4.48554 3.57816 4.65591 3.43834 4.85525 3.35577C5.05459 3.2732 5.27393 3.2516 5.48555 3.29369C5.69717 3.33578 5.89155 3.43968 6.04411 3.59225C6.19668 3.74481 6.30058 3.9392 6.34267 4.15081C6.38477 4.36243 6.36316 4.58177 6.28059 4.78111C6.19803 4.98045 6.0582 5.15082 5.8788 5.27069C5.6994 5.39056 5.48849 5.45455 5.27272 5.45455C4.9834 5.45455 4.70592 5.33961 4.50134 5.13503C4.29675 4.93044 4.18182 4.65296 4.18182 4.36364ZM7.45454 4.36364C7.45454 4.14787 7.51852 3.93696 7.63839 3.75756C7.75827 3.57816 7.92864 3.43834 8.12798 3.35577C8.32732 3.2732 8.54666 3.2516 8.75828 3.29369C8.96989 3.33578 9.16427 3.43968 9.31684 3.59225C9.46941 3.74481 9.57331 3.9392 9.6154 4.15081C9.65749 4.36243 9.63589 4.58177 9.55332 4.78111C9.47075 4.98045 9.33093 5.15082 9.15153 5.27069C8.97213 5.39056 8.76121 5.45455 8.54545 5.45455C8.25612 5.45455 7.97865 5.33961 7.77406 5.13503C7.56948 4.93044 7.45454 4.65296 7.45454 4.36364ZM10.7273 4.36364C10.7273 4.14787 10.7913 3.93696 10.9111 3.75756C11.031 3.57816 11.2014 3.43834 11.4007 3.35577C11.6 3.2732 11.8194 3.2516 12.031 3.29369C12.2426 3.33578 12.437 3.43968 12.5896 3.59225C12.7421 3.74481 12.846 3.9392 12.8881 4.15081C12.9302 4.36243 12.9086 4.58177 12.826 4.78111C12.7435 4.98045 12.6037 5.15082 12.4243 5.27069C12.2449 5.39056 12.0339 5.45455 11.8182 5.45455C11.5289 5.45455 11.2514 5.33961 11.0468 5.13503C10.8422 4.93044 10.7273 4.65296 10.7273 4.36364Z"></path>
  </symbol>
   <symbol xmlns="http://www.w3.org/2000/svg" viewBox="0 0 24 24" id="edit">
    <g clip-path="url(#clip0_5:74)">
      <path d="M18.656 0.930011L6.464 13.122C5.99834 13.5852 5.62918 14.1361 5.37788 14.7429C5.12658 15.3496 4.99814 16.0002 5 16.657V18C5 18.2652 5.10535 18.5196 5.29289 18.7071C5.48043 18.8947 5.73478 19 6 19H7.343C7.99976 19.0019 8.65037 18.8734 9.25715 18.6221C9.86394 18.3708 10.4149 18.0017 10.878 17.536L23.07 5.34401C23.6544 4.75818 23.9826 3.96449 23.9826 3.13701C23.9826 2.30954 23.6544 1.51584 23.07 0.930011C22.4757 0.361905 21.6852 0.0448608 20.863 0.0448608C20.0408 0.0448608 19.2503 0.361905 18.656 0.930011ZM21.656 3.93001L9.464 16.122C8.90012 16.6824 8.138 16.9979 7.343 17H7V16.657C7.00208 15.862 7.31756 15.0999 7.878 14.536L20.07 2.34401C20.2836 2.13997 20.5676 2.0261 20.863 2.0261C21.1584 2.0261 21.4424 2.13997 21.656 2.34401C21.8659 2.55453 21.9838 2.8397 21.9838 3.13701C21.9838 3.43432 21.8659 3.7195 21.656 3.93001Z"></path>
      <path d="M23 8.979C22.7348 8.979 22.4804 9.08436 22.2929 9.27189C22.1054 9.45943 22 9.71378 22 9.979V15H18C17.2044 15 16.4413 15.3161 15.8787 15.8787C15.3161 16.4413 15 17.2044 15 18V22H5C4.20435 22 3.44129 21.6839 2.87868 21.1213C2.31607 20.5587 2 19.7956 2 19V5C2 4.20435 2.31607 3.44129 2.87868 2.87868C3.44129 2.31607 4.20435 2 5 2H14.042C14.3072 2 14.5616 1.89464 14.7491 1.70711C14.9366 1.51957 15.042 1.26522 15.042 1C15.042 0.734784 14.9366 0.48043 14.7491 0.292893C14.5616 0.105357 14.3072 0 14.042 0L5 0C3.67441 0.00158786 2.40356 0.528882 1.46622 1.46622C0.528882 2.40356 0.00158786 3.67441 0 5L0 19C0.00158786 20.3256 0.528882 21.5964 1.46622 22.5338C2.40356 23.4711 3.67441 23.9984 5 24H16.343C16.9999 24.0019 17.6507 23.8735 18.2576 23.6222C18.8646 23.3709 19.4157 23.0017 19.879 22.536L22.535 19.878C23.0007 19.4149 23.37 18.864 23.6215 18.2572C23.873 17.6504 24.0016 16.9998 24 16.343V9.979C24 9.71378 23.8946 9.45943 23.7071 9.27189C23.5196 9.08436 23.2652 8.979 23 8.979ZM18.465 21.122C18.063 21.523 17.5547 21.8006 17 21.922V18C17 17.7348 17.1054 17.4804 17.2929 17.2929C17.4804 17.1054 17.7348 17 18 17H21.925C21.8013 17.5535 21.524 18.0609 21.125 18.464L18.465 21.122Z"></path>
    </g>
  </symbol>
   <symbol xmlns="http://www.w3.org/2000/svg" viewBox="0 0 32 33" id="fingerprint">
    <g filter="url(#filter0_d_33:4)">
      <path d="M10.4651 22.2851C10.2465 22.285 10.0339 22.2133 9.85996 22.081C9.68598 21.9486 9.56016 21.7629 9.50174 21.5523C9.44333 21.3417 9.45554 21.1177 9.5365 20.9146C9.61747 20.7116 9.76273 20.5407 9.95006 20.4281C13.4931 18.3001 13.4931 13.7301 13.4931 11.0001C13.4931 10.2044 13.8091 9.44134 14.3717 8.87873C14.9343 8.31612 15.6974 8.00005 16.4931 8.00005C17.2887 8.00005 18.0518 8.31612 18.6144 8.87873C19.177 9.44134 19.4931 10.2044 19.4931 11.0001C19.4931 11.2653 19.3877 11.5196 19.2002 11.7072C19.0126 11.8947 18.7583 12.0001 18.4931 12.0001C18.2278 12.0001 17.9735 11.8947 17.786 11.7072C17.5984 11.5196 17.4931 11.2653 17.4931 11.0001C17.4931 10.7348 17.3877 10.4805 17.2002 10.2929C17.0126 10.1054 16.7583 10.0001 16.4931 10.0001C16.2278 10.0001 15.9735 10.1054 15.786 10.2929C15.5984 10.4805 15.4931 10.7348 15.4931 11.0001C15.4931 13.9471 15.4931 19.4341 10.9791 22.1431C10.8237 22.236 10.6461 22.2851 10.4651 22.2851ZM15.4281 23.7061C17.7101 21.4061 19.0431 18.1721 19.3891 14.0851C19.4007 13.9539 19.3864 13.8218 19.3469 13.6963C19.3074 13.5707 19.2435 13.4542 19.1588 13.3534C19.0742 13.2526 18.9705 13.1695 18.8537 13.1089C18.7368 13.0482 18.6092 13.0112 18.4781 13.0001C18.3468 12.9866 18.2142 12.9997 18.0882 13.0385C17.9621 13.0774 17.8452 13.1412 17.7443 13.2262C17.6434 13.3113 17.5607 13.4157 17.5011 13.5333C17.4414 13.651 17.406 13.7794 17.3971 13.9111C17.0861 17.5681 15.9781 20.3111 14.0091 22.2921C13.8221 22.4802 13.7175 22.735 13.7184 23.0002C13.7192 23.2655 13.8254 23.5196 14.0136 23.7066C14.2017 23.8935 14.4565 23.9981 14.7217 23.9973C14.987 23.9964 15.2411 23.8902 15.4281 23.7021V23.7061ZM20.6281 23.5201C21.2346 22.5122 21.7398 21.4466 22.1361 20.3391C22.2189 20.0913 22.2015 19.821 22.0877 19.586C21.9738 19.3509 21.7725 19.1697 21.5268 19.0811C21.2811 18.9926 21.0104 19.0037 20.7728 19.112C20.5351 19.2204 20.3493 19.4175 20.2551 19.6611C19.903 20.6431 19.4548 21.588 18.9171 22.4821C18.8489 22.5944 18.8035 22.7191 18.7836 22.8489C18.7636 22.9788 18.7694 23.1114 18.8006 23.239C18.8319 23.3666 18.888 23.4869 18.9657 23.5928C19.0434 23.6988 19.1412 23.7884 19.2536 23.8566C19.4804 23.9942 19.7527 24.0361 20.0105 23.973C20.1381 23.9417 20.2584 23.8856 20.3643 23.8079C20.4703 23.7302 20.5599 23.6324 20.6281 23.5201ZM22.9931 17.1911C23.3635 15.1489 23.531 13.0752 23.4931 11.0001C23.4921 9.58335 23.0613 8.20028 22.2576 7.03361C21.4539 5.86694 20.3151 4.9716 18.9918 4.46589C17.6684 3.96019 16.2227 3.86793 14.8458 4.20131C13.4689 4.53469 12.2255 5.27801 11.2801 6.33305C11.188 6.43005 11.1163 6.54454 11.0692 6.66974C11.0222 6.79494 11.0007 6.92831 11.0061 7.06194C11.0115 7.19558 11.0437 7.32678 11.1007 7.44777C11.1577 7.56876 11.2384 7.67708 11.338 7.76633C11.4377 7.85557 11.5542 7.92393 11.6807 7.96735C11.8072 8.01077 11.9411 8.02838 12.0745 8.01912C12.208 8.00986 12.3382 7.97394 12.4575 7.91346C12.5768 7.85299 12.6827 7.7692 12.7691 7.66705C13.4443 6.91333 14.3324 6.38226 15.316 6.14402C16.2995 5.90578 17.3322 5.97159 18.2775 6.33276C19.2228 6.69392 20.0363 7.33344 20.6105 8.16678C21.1846 9.00013 21.4924 9.98807 21.4931 11.0001C21.5299 12.9469 21.3752 14.8926 21.0311 16.8091C20.9806 17.0692 21.0354 17.3388 21.1835 17.5585C21.3317 17.7783 21.561 17.9303 21.8211 17.9811C21.8846 17.9938 21.9493 18.0001 22.0141 18.0001C22.2457 17.9995 22.4699 17.9185 22.6485 17.7709C22.827 17.6234 22.9488 17.4184 22.9931 17.1911ZM11.4931 11.0001C11.4928 10.7209 11.5158 10.4423 11.5621 10.1671C11.5919 10.0345 11.5945 9.89734 11.5696 9.76381C11.5446 9.63028 11.4928 9.50322 11.4171 9.3904C11.3415 9.27757 11.2437 9.18133 11.1296 9.10756C11.0156 9.03379 10.8877 8.98403 10.7538 8.96131C10.6198 8.93859 10.4827 8.9434 10.3507 8.97543C10.2187 9.00746 10.0946 9.06606 9.98598 9.14763C9.87737 9.2292 9.78651 9.33205 9.71896 9.44989C9.6514 9.56773 9.60857 9.69811 9.59306 9.83305C9.52704 10.2186 9.49359 10.6089 9.49306 11.0001C9.49306 15.6451 8.14706 18.0001 5.49306 18.0001C5.22784 18.0001 4.97349 18.1054 4.78595 18.2929C4.59841 18.4805 4.49306 18.7348 4.49306 19.0001C4.49306 19.2653 4.59841 19.5196 4.78595 19.7072C4.97349 19.8947 5.22784 20.0001 5.49306 20.0001C9.36206 20.0001 11.4931 16.8001 11.4931 11.0001ZM25.1931 23.4141C26.8387 19.4882 27.6231 15.2549 27.4931 11.0001C27.4977 9.33897 27.1214 7.69896 26.3931 6.20605C26.3356 6.08786 26.2554 5.98215 26.1571 5.89494C26.0588 5.80773 25.9443 5.74074 25.8201 5.6978C25.6959 5.65485 25.5645 5.63678 25.4333 5.64464C25.3021 5.65249 25.1737 5.6861 25.0556 5.74355C24.9374 5.801 24.8317 5.88117 24.7444 5.97948C24.6572 6.07779 24.5903 6.19232 24.5473 6.31651C24.5044 6.44071 24.4863 6.57215 24.4941 6.70333C24.502 6.83451 24.5356 6.96286 24.5931 7.08105C25.1881 8.30162 25.496 9.64217 25.4931 11.0001C25.6189 14.9688 24.8965 18.9188 23.3741 22.5861C23.3199 22.7058 23.2898 22.8351 23.2856 22.9664C23.2814 23.0978 23.3031 23.2287 23.3496 23.3517C23.396 23.4747 23.4662 23.5873 23.5562 23.6831C23.6462 23.7789 23.7542 23.856 23.8741 23.9101C24.0036 23.9696 24.1445 24.0003 24.2871 24.0001C24.4783 23.9992 24.6653 23.9436 24.8259 23.8397C24.9865 23.7359 25.1139 23.5881 25.1931 23.4141ZM7.49306 14.0001V11.0001C7.4957 8.61392 8.44477 6.32627 10.132 4.63901C11.8193 2.95176 14.1069 2.0027 16.4931 2.00005C18.4414 1.99356 20.3382 2.62583 21.8931 3.80005C22.1052 3.95918 22.3719 4.02751 22.6345 3.99C22.897 3.95249 23.1339 3.81222 23.2931 3.60005C23.4522 3.38788 23.5205 3.12118 23.483 2.85863C23.4455 2.59608 23.3052 2.35918 23.0931 2.20005C21.1924 0.765473 18.8743 -0.0072348 16.4931 5.10545e-05C13.5767 0.00349153 10.7808 1.16352 8.71868 3.22568C6.65653 5.28783 5.4965 8.08373 5.49306 11.0001V14.0001C5.49306 14.2653 5.59841 14.5196 5.78595 14.7072C5.97349 14.8947 6.22784 15.0001 6.49306 15.0001C6.75827 15.0001 7.01263 14.8947 7.20016 14.7072C7.3877 14.5196 7.49306 14.2653 7.49306 14.0001Z" ></path>
    </g>
  </symbol>
   <symbol xmlns="http://www.w3.org/2000/svg" viewBox="0 0 24 24" id="camera">
    <g clip-path="url(#clip0_5:90)">
      <path d="M22.9 8.95501C22.5689 8.78723 22.1975 8.71554 21.8277 8.74806C21.458 8.78058 21.1047 8.91601 20.808 9.13901L18.975 10.5C18.8495 9.2673 18.2714 8.1249 17.3525 7.2937C16.4336 6.4625 15.2391 6.00157 14 6.00001H13.915L9.793 1.87901C9.51528 1.59935 9.18478 1.37764 8.82068 1.22674C8.45658 1.07585 8.06613 0.998781 7.672 1.00001H1C0.734784 1.00001 0.48043 1.10537 0.292893 1.29291C0.105357 1.48044 0 1.7348 0 2.00001C0 2.26523 0.105357 2.51959 0.292893 2.70712C0.48043 2.89466 0.734784 3.00001 1 3.00001H7.672C7.93706 3.00073 8.19114 3.10602 8.379 3.29301L11.086 6.00001H5C3.67441 6.0016 2.40356 6.5289 1.46622 7.46623C0.528882 8.40357 0.00158786 9.67442 0 11L0 19C0.00158786 20.3256 0.528882 21.5965 1.46622 22.5338C2.40356 23.4711 3.67441 23.9984 5 24H14C15.2391 23.9985 16.4336 23.5375 17.3525 22.7063C18.2714 21.8751 18.8495 20.7327 18.975 19.5L20.805 20.864C21.1021 21.0869 21.4555 21.2226 21.8254 21.2559C22.1953 21.2893 22.5672 21.219 22.8994 21.0529C23.2316 20.8868 23.511 20.6314 23.7063 20.3155C23.9016 19.9995 24.005 19.6354 24.005 19.264V10.743C24.0063 10.3715 23.9034 10.0071 23.7081 9.69104C23.5128 9.375 23.2329 9.12003 22.9 8.95501ZM17 19C17 19.7957 16.6839 20.5587 16.1213 21.1213C15.5587 21.6839 14.7956 22 14 22H5C4.20435 22 3.44129 21.6839 2.87868 21.1213C2.31607 20.5587 2 19.7957 2 19V11C2 10.2044 2.31607 9.4413 2.87868 8.87869C3.44129 8.31608 4.20435 8.00001 5 8.00001H14C14.7956 8.00001 15.5587 8.31608 16.1213 8.87869C16.6839 9.4413 17 10.2044 17 11V19ZM22 19.257L19 17.021V12.979L22 10.743V19.257Z"></path>
    </g>
  </symbol>
   <symbol xmlns="http://www.w3.org/2000/svg" viewBox="0 0 24 24" id="school">
    <g clip-path="url(#clip0_5:97)">
      <path d="M19 6.00001H14.321C13.9224 5.71592 13.4744 5.50839 13 5.38801V5.00001L16.53 3.34801C16.6747 3.25832 16.7941 3.13318 16.8769 2.98443C16.9598 2.83568 17.0032 2.66825 17.0032 2.49801C17.0032 2.32776 16.9598 2.16033 16.8769 2.01158C16.7941 1.86283 16.6747 1.73769 16.53 1.64801L13.33 0.148006C13.0802 0.0312575 12.8049 -0.0204779 12.5297 -0.0023985C12.2545 0.0156809 11.9883 0.102989 11.7559 0.251422C11.5235 0.399855 11.3323 0.604601 11.2002 0.846656C11.068 1.08871 10.9992 1.36023 11 1.63601V5.38801C10.5258 5.50822 10.0782 5.71577 9.68 6.00001H5C3.67441 6.00159 2.40356 6.52889 1.46622 7.46623C0.528882 8.40356 0.00158786 9.67441 0 11L0 21C0 21.7957 0.31607 22.5587 0.87868 23.1213C1.44129 23.6839 2.20435 24 3 24H21C21.7956 24 22.5587 23.6839 23.1213 23.1213C23.6839 22.5587 24 21.7957 24 21V11C23.9984 9.67441 23.4711 8.40356 22.5338 7.46623C21.5964 6.52889 20.3256 6.00159 19 6.00001ZM21.816 10H19.657C18.8618 9.99798 18.0995 9.68208 17.536 9.12101L16.414 8.00001H19C19.6183 8.00257 20.2206 8.19609 20.7247 8.55409C21.2288 8.9121 21.6099 9.4171 21.816 10ZM5 8.00001H7.586L6.464 9.12101C5.90047 9.68208 5.13821 9.99798 4.343 10H2.184C2.39008 9.4171 2.77123 8.9121 3.2753 8.55409C3.77937 8.19609 4.38174 8.00257 5 8.00001ZM13 22H11V19C11 18.7348 11.1054 18.4804 11.2929 18.2929C11.4804 18.1054 11.7348 18 12 18C12.2652 18 12.5196 18.1054 12.7071 18.2929C12.8946 18.4804 13 18.7348 13 19V22ZM21 22H15V19C15 18.2044 14.6839 17.4413 14.1213 16.8787C13.5587 16.3161 12.7956 16 12 16C11.2044 16 10.4413 16.3161 9.87868 16.8787C9.31607 17.4413 9 18.2044 9 19V22H3C2.73478 22 2.48043 21.8946 2.29289 21.7071C2.10536 21.5196 2 21.2652 2 21V12H4.343C4.99982 12.0016 5.65043 11.873 6.25721 11.6215C6.86398 11.37 7.41487 11.0008 7.878 10.535L10.586 7.82801C10.9611 7.45306 11.4697 7.24243 12 7.24243C12.5303 7.24243 13.0389 7.45306 13.414 7.82801L16.122 10.535C16.5851 11.0008 17.136 11.37 17.7428 11.6215C18.3496 11.873 19.0002 12.0016 19.657 12H22V21C22 21.2652 21.8946 21.5196 21.7071 21.7071C21.5196 21.8946 21.2652 22 21 22ZM7 15C7 15.2652 6.89464 15.5196 6.70711 15.7071C6.51957 15.8946 6.26522 16 6 16H5C4.73478 16 4.48043 15.8946 4.29289 15.7071C4.10536 15.5196 4 15.2652 4 15C4 14.7348 4.10536 14.4804 4.29289 14.2929C4.48043 14.1054 4.73478 14 5 14H6C6.26522 14 6.51957 14.1054 6.70711 14.2929C6.89464 14.4804 7 14.7348 7 15ZM7 19C7 19.2652 6.89464 19.5196 6.70711 19.7071C6.51957 19.8946 6.26522 20 6 20H5C4.73478 20 4.48043 19.8946 4.29289 19.7071C4.10536 19.5196 4 19.2652 4 19C4 18.7348 4.10536 18.4804 4.29289 18.2929C4.48043 18.1054 4.73478 18 5 18H6C6.26522 18 6.51957 18.1054 6.70711 18.2929C6.89464 18.4804 7 18.7348 7 19ZM20 15C20 15.2652 19.8946 15.5196 19.7071 15.7071C19.5196 15.8946 19.2652 16 19 16H18C17.7348 16 17.4804 15.8946 17.2929 15.7071C17.1054 15.5196 17 15.2652 17 15C17 14.7348 17.1054 14.4804 17.2929 14.2929C17.4804 14.1054 17.7348 14 18 14H19C19.2652 14 19.5196 14.1054 19.7071 14.2929C19.8946 14.4804 20 14.7348 20 15ZM20 19C20 19.2652 19.8946 19.5196 19.7071 19.7071C19.5196 19.8946 19.2652 20 19 20H18C17.7348 20 17.4804 19.8946 17.2929 19.7071C17.1054 19.5196 17 19.2652 17 19C17 18.7348 17.1054 18.4804 17.2929 18.2929C17.4804 18.1054 17.7348 18 18 18H19C19.2652 18 19.5196 18.1054 19.7071 18.2929C19.8946 18.4804 20 18.7348 20 19ZM14 12C14 12.3956 13.8827 12.7822 13.6629 13.1111C13.4432 13.44 13.1308 13.6964 12.7654 13.8478C12.3999 13.9991 11.9978 14.0387 11.6098 13.9616C11.2219 13.8844 10.8655 13.6939 10.5858 13.4142C10.3061 13.1345 10.1156 12.7781 10.0384 12.3902C9.96126 12.0022 10.0009 11.6001 10.1522 11.2346C10.3036 10.8692 10.56 10.5568 10.8889 10.3371C11.2178 10.1173 11.6044 10 12 10C12.5304 10 13.0391 10.2107 13.4142 10.5858C13.7893 10.9609 14 11.4696 14 12Z"></path>
    </g>
  </symbol>
   <symbol xmlns="http://www.w3.org/2000/svg" viewBox="0 0 32 33" id="ber">
    <g filter="url(#filter0_d_5:84)">
      <path d="M10.4651 22.2851C10.2465 22.285 10.0339 22.2133 9.85996 22.081C9.68598 21.9486 9.56016 21.7629 9.50174 21.5523C9.44333 21.3417 9.45554 21.1177 9.5365 20.9146C9.61747 20.7116 9.76273 20.5407 9.95006 20.4281C13.4931 18.3001 13.4931 13.7301 13.4931 11.0001C13.4931 10.2044 13.8091 9.44134 14.3717 8.87873C14.9343 8.31612 15.6974 8.00005 16.4931 8.00005C17.2887 8.00005 18.0518 8.31612 18.6144 8.87873C19.177 9.44134 19.4931 10.2044 19.4931 11.0001C19.4931 11.2653 19.3877 11.5196 19.2002 11.7072C19.0126 11.8947 18.7583 12.0001 18.4931 12.0001C18.2278 12.0001 17.9735 11.8947 17.786 11.7072C17.5984 11.5196 17.4931 11.2653 17.4931 11.0001C17.4931 10.7348 17.3877 10.4805 17.2002 10.2929C17.0126 10.1054 16.7583 10.0001 16.4931 10.0001C16.2278 10.0001 15.9735 10.1054 15.786 10.2929C15.5984 10.4805 15.4931 10.7348 15.4931 11.0001C15.4931 13.9471 15.4931 19.4341 10.9791 22.1431C10.8237 22.236 10.6461 22.2851 10.4651 22.2851ZM15.4281 23.7061C17.7101 21.4061 19.0431 18.1721 19.3891 14.0851C19.4007 13.9539 19.3864 13.8218 19.3469 13.6963C19.3074 13.5707 19.2435 13.4542 19.1588 13.3534C19.0742 13.2526 18.9705 13.1695 18.8537 13.1089C18.7368 13.0482 18.6092 13.0112 18.4781 13.0001C18.3468 12.9866 18.2142 12.9997 18.0882 13.0385C17.9621 13.0774 17.8452 13.1412 17.7443 13.2262C17.6434 13.3113 17.5607 13.4157 17.5011 13.5333C17.4414 13.651 17.406 13.7794 17.3971 13.9111C17.0861 17.5681 15.9781 20.3111 14.0091 22.2921C13.8221 22.4802 13.7175 22.735 13.7184 23.0002C13.7192 23.2655 13.8254 23.5196 14.0136 23.7066C14.2017 23.8935 14.4565 23.9981 14.7217 23.9973C14.987 23.9964 15.2411 23.8902 15.4281 23.7021V23.7061ZM20.6281 23.5201C21.2346 22.5122 21.7398 21.4466 22.1361 20.3391C22.2189 20.0913 22.2015 19.821 22.0877 19.586C21.9738 19.3509 21.7725 19.1697 21.5268 19.0811C21.2811 18.9926 21.0104 19.0037 20.7728 19.112C20.5351 19.2204 20.3493 19.4175 20.2551 19.6611C19.903 20.6431 19.4548 21.588 18.9171 22.4821C18.8489 22.5944 18.8035 22.7191 18.7836 22.8489C18.7636 22.9788 18.7694 23.1114 18.8006 23.239C18.8319 23.3666 18.888 23.4869 18.9657 23.5928C19.0434 23.6988 19.1412 23.7884 19.2536 23.8566C19.4804 23.9942 19.7527 24.0361 20.0105 23.973C20.1381 23.9417 20.2584 23.8856 20.3643 23.8079C20.4703 23.7302 20.5599 23.6324 20.6281 23.5201ZM22.9931 17.1911C23.3635 15.1489 23.531 13.0752 23.4931 11.0001C23.4921 9.58335 23.0613 8.20028 22.2576 7.03361C21.4539 5.86694 20.3151 4.9716 18.9918 4.46589C17.6684 3.96019 16.2227 3.86793 14.8458 4.20131C13.4689 4.53469 12.2255 5.27801 11.2801 6.33305C11.188 6.43005 11.1163 6.54454 11.0692 6.66974C11.0222 6.79494 11.0007 6.92831 11.0061 7.06194C11.0115 7.19558 11.0437 7.32678 11.1007 7.44777C11.1577 7.56876 11.2384 7.67708 11.338 7.76633C11.4377 7.85557 11.5542 7.92393 11.6807 7.96735C11.8072 8.01077 11.9411 8.02838 12.0745 8.01912C12.208 8.00986 12.3382 7.97394 12.4575 7.91346C12.5768 7.85299 12.6827 7.7692 12.7691 7.66705C13.4443 6.91333 14.3324 6.38226 15.316 6.14402C16.2995 5.90578 17.3322 5.97159 18.2775 6.33276C19.2228 6.69392 20.0363 7.33344 20.6105 8.16678C21.1846 9.00013 21.4924 9.98807 21.4931 11.0001C21.5299 12.9469 21.3752 14.8926 21.0311 16.8091C20.9806 17.0692 21.0354 17.3388 21.1835 17.5585C21.3317 17.7783 21.561 17.9303 21.8211 17.9811C21.8846 17.9938 21.9493 18.0001 22.0141 18.0001C22.2457 17.9995 22.4699 17.9185 22.6485 17.7709C22.827 17.6234 22.9488 17.4184 22.9931 17.1911ZM11.4931 11.0001C11.4928 10.7209 11.5158 10.4423 11.5621 10.1671C11.5919 10.0345 11.5945 9.89734 11.5696 9.76381C11.5446 9.63028 11.4928 9.50322 11.4171 9.3904C11.3415 9.27757 11.2437 9.18133 11.1296 9.10756C11.0156 9.03379 10.8877 8.98403 10.7538 8.96131C10.6198 8.93859 10.4827 8.9434 10.3507 8.97543C10.2187 9.00746 10.0946 9.06606 9.98598 9.14763C9.87737 9.2292 9.78651 9.33205 9.71896 9.44989C9.6514 9.56773 9.60857 9.69811 9.59306 9.83305C9.52704 10.2186 9.49359 10.6089 9.49306 11.0001C9.49306 15.6451 8.14706 18.0001 5.49306 18.0001C5.22784 18.0001 4.97349 18.1054 4.78595 18.2929C4.59841 18.4805 4.49306 18.7348 4.49306 19.0001C4.49306 19.2653 4.59841 19.5196 4.78595 19.7072C4.97349 19.8947 5.22784 20.0001 5.49306 20.0001C9.36206 20.0001 11.4931 16.8001 11.4931 11.0001ZM25.1931 23.4141C26.8387 19.4882 27.6231 15.2549 27.4931 11.0001C27.4977 9.33897 27.1214 7.69896 26.3931 6.20605C26.3356 6.08786 26.2554 5.98215 26.1571 5.89494C26.0588 5.80773 25.9443 5.74074 25.8201 5.6978C25.6959 5.65485 25.5645 5.63678 25.4333 5.64464C25.3021 5.65249 25.1737 5.6861 25.0556 5.74355C24.9374 5.801 24.8317 5.88117 24.7444 5.97948C24.6572 6.07779 24.5903 6.19232 24.5473 6.31651C24.5044 6.44071 24.4863 6.57215 24.4941 6.70333C24.502 6.83451 24.5356 6.96286 24.5931 7.08105C25.1881 8.30162 25.496 9.64217 25.4931 11.0001C25.6189 14.9688 24.8965 18.9188 23.3741 22.5861C23.3199 22.7058 23.2898 22.8351 23.2856 22.9664C23.2814 23.0978 23.3031 23.2287 23.3496 23.3517C23.396 23.4747 23.4662 23.5873 23.5562 23.6831C23.6462 23.7789 23.7542 23.856 23.8741 23.9101C24.0036 23.9696 24.1445 24.0003 24.2871 24.0001C24.4783 23.9992 24.6653 23.9436 24.8259 23.8397C24.9865 23.7359 25.1139 23.5881 25.1931 23.4141ZM7.49306 14.0001V11.0001C7.4957 8.61392 8.44477 6.32627 10.132 4.63901C11.8193 2.95176 14.1069 2.0027 16.4931 2.00005C18.4414 1.99356 20.3382 2.62583 21.8931 3.80005C22.1052 3.95918 22.3719 4.02751 22.6345 3.99C22.897 3.95249 23.1339 3.81222 23.2931 3.60005C23.4522 3.38788 23.5205 3.12118 23.483 2.85863C23.4455 2.59608 23.3052 2.35918 23.0931 2.20005C21.1924 0.765473 18.8743 -0.0072348 16.4931 5.10545e-05C13.5767 0.00349153 10.7808 1.16352 8.71868 3.22568C6.65653 5.28783 5.4965 8.08373 5.49306 11.0001V14.0001C5.49306 14.2653 5.59841 14.5196 5.78595 14.7072C5.97349 14.8947 6.22784 15.0001 6.49306 15.0001C6.75827 15.0001 7.01263 14.8947 7.20016 14.7072C7.3877 14.5196 7.49306 14.2653 7.49306 14.0001Z"></path>
    </g>
  </symbol>
</svg>